<svg xmlns="http://www.w3.org/2000/svg" viewBox="0 0 103.42 167.59">
  <defs>
    <style>
      .cls-1 {
        fill: #262262;
      }
    </style>
  </defs>
  <title>VKP_logo_pysti</title>

    <g class="cls-1">
      <path  d="M75.71,59.87c2.68.12.18,4.07-2.48,3.86-3.35-.26-8.07-3.16-10.05-5.34S59.4,52.46,56.55,49c-6.42-7.84-15.48-1.55-17.77-.3-5.09,2.76-14.31,11.25-20.72,11.93s-14.21-4.1-15.88-7c-1.07-1.89,0-2.63,1-2.92a1.78,1.78,0,0,1,1.61.3c1.86,1.47,7.49,5.73,10,5.93,3.05.24,5.9-.54,10.35-3.78s9.36-8.47,15.7-11.49,16-4.77,22.26,8.73c2,4.31,3,5.54,5.51,7.08A18.94,18.94,0,0,0,75.71,59.87Z"/>
      <path d="M80.57,44.47C76.5,41.08,74.21,31.84,70,23.36,60.48,4.39,42.56,2.69,29.12,9.57c-1.84,1.07-1.28,2.65-.81,3.55a3.89,3.89,0,0,0,2.52,1.29c2.26,0,16.06-7.6,27.5,2.23,11.13,9.57,13.18,23.85,17.8,29.28C84,55.13,92.43,52.5,97.4,68.21c3.45,10.9-2.32,15.38-5.76,17.21-1.23.66-4,1.13-6.86-4.14-1.71-3.09-4.21-10.19,1.08-11.46,2.1-.51,3.93,4,3.31,6a1,1,0,0,0-1.71.62c-.9,2.94,3.36,4.58,3.68.58.35-4.29-.68-10.53-4-11.93a5.38,5.38,0,0,0-5.77,1.12c-4.81,4.06-2.53,11.49-.63,16.29,3.29,8.34,8.58,8.68,9.4,8.51a35.47,35.47,0,0,1,.91,8.3c-1.91.68-10.28,4.4-12.64,4a51.09,51.09,0,0,1-11.75-4c-2.15-1.19-4.3-10.16-6.8-17.55,6.3,0,9.29.36,15.07,2.36a1.55,1.55,0,0,0,2-1.78c-1-4.56-1.3-8.31-2-10.78a2.15,2.15,0,0,0-2-1.56c-5.12-.16-20.32-.36-27.34,1.13-12,2.55-25.81,9.6-29.54,24a37.52,37.52,0,0,0,4.39,30.19c3.67,6,11.52,13.89,15.56,16.36,5.59,3.43,10.08,10.49,2.85,13.79-2.51,1.14-8.31.32-11-.15a1.6,1.6,0,0,0-1.82,1.13L25.33,159a3,3,0,0,0,2.25,3.82c2.18.49,5.64.24,9.46.2,7.28-.09,9.85-4.06,11.48-6.63s1.39-7.55-.5-10.76c-2.77-4.72-11.86-11.56-14.08-13.55s3.32-7.47,5.87-5.54c2.22,1.69,16.57,13,19.34,15.63,4.14,4,4.23,6.36,2.69,9.56-1.26,2.62-4.16,7.86-5.42,10.1a2,2,0,0,0,.13,2.08c1.28,1.79,4.33,4.53,5.12,3.45a173.85,173.85,0,0,0,7.89-16.14A10.21,10.21,0,0,0,67.81,141c-4.32-5.35-14.88-13.38-21-18.37a34.5,34.5,0,0,1-12.15-20c-2.92-13.76,11-18.5,18.65-19.85,2.83,8.85,7.15,17.9,9.17,20,3.24,3.42,12.52,5.42,16.68,7.06,3,1.19,6.34,5.19,8,7.31a40.78,40.78,0,0,1-2.49,4.46c1.9,6.65,11.34,8.15,13,7.16.79-1.68,7.15-15.39-2.86-38.79,5.53-3.73,11.3-10.31,7.45-22.58C97,51.06,89,51.47,80.57,44.47Zm1.94,60,8.5-3.17c-.05,1.1-.14,2.27-.29,3.49h0c-1.27-.08-5.88.19-8.1.19A.26.26,0,0,1,82.51,104.46Zm.19,5,6.1,3.64q-.36,1.06-.81,2.13l-5.5-5.45C82.32,109.59,82.48,109.33,82.7,109.45Zm6.9,1c-2.13-.89-6.84-2.86-6.87-3.09a.28.28,0,0,1,.13-.38c.12-.08,5.12-.32,7.6-.43C90.24,107.84,90,109.14,89.6,110.48Z"/>
      <circle cx="28.83" cy="35.21" r="4.55"/>
      <circle cx="32.2" cy="20.6" r="2.79"/>
      <circle cx="19.64" cy="23.29" r="1.78"/>
      <circle cx="3.16" cy="37.46" r="3.16"/>
      <circle cx="49.28" cy="25.17" r="2.41"/>
      <circle cx="39.88" cy="33.55" r="2.32"/>
      <circle cx="15.78" cy="46.03" r="1.79"/>
      <circle cx="13.79" cy="66.59" r="2.35"/>
      <circle cx="47.08" cy="53.26" r="2.32"/>
      <circle cx="59.26" cy="35.18" r="1.43"/>
      <circle cx="65.85" cy="39.15" r="2.39"/>
      <circle cx="82.77" cy="32.97" r="2.39"/>
      <circle cx="70.67" cy="52.36" r="1.95"/>
      <circle cx="82.58" cy="58.46" r="2"/>
      <circle cx="70.1" cy="11.25" r="2.07"/>
      <circle cx="51.32" cy="1.92" r="1.92"/>
    </g>
</svg>
